<svg xmlns="http://www.w3.org/2000/svg" xmlns:xlink="http://www.w3.org/1999/xlink" width="660" height="195.39"><rect width="660" height="195.39" rx="0" ry="0" class="a"/><svg height="195.39" viewBox="0 0 64 19.539" width="640" x="10" xmlns="http://www.w3.org/2000/svg" xmlns:xlink="http://www.w3.org/1999/xlink"><style>.a,.e{fill:#282a36}.e{font-weight:700}.f{fill:#57c7ff}.h{fill:#5af78e}.j{fill:#f3f99d}.l{fill:#ff5c57}</style><g font-size="1.67" font-family="Monaco,Consolas,Menlo,'Bitstream Vera Sans Mono','Powerline Symbols',monospace"><defs><symbol id="a"><path fill="transparent" d="M0 0h64v10H0z"/></symbol></defs><path class="a" d="M0 0h64v19.539H0z"/><svg width="64"><svg><use xlink:href="#a"/><path class="f" d="M0 2.171h6v2.171H0z"/><text y="3.841" x="1" class="e">TEST</text><text x="7.014" y="3.841" class="f">Running</text><text x="15.03" y="3.841" class="f">unit</text><text x="20.04" y="3.841" class="f">tests...</text><path class="h" d="M0 6.513h7v2.171H0z"/><text y="8.183" x="1" class="e">READY</text><text x="8.016" y="8.183" class="h">Server</text><text x="15.03" y="8.183" class="h">running</text><text x="23.046" y="8.183" class="h">on</text><text x="26.052" y="8.183" class="f">http://localhost:3000</text><path class="j" d="M0 10.855h6v2.171H0z"/><text y="12.525" x="1" class="e">WARN</text><text x="7.014" y="12.525" class="j">This</text><text x="12.024" y="12.525" class="j">feature</text><text x="20.04" y="12.525" class="j">will</text><text x="25.05" y="12.525" class="j">be</text><text x="28.056" y="12.525" class="j">deprecated</text><text x="39.078" y="12.525" class="j">soon.</text><path class="l" d="M0 15.197h7v2.171H0z"/><text y="16.867" x="1" class="e">ERROR</text><text x="8.016" y="16.867" class="l">Could</text><text x="14.028" y="16.867" class="l">not</text><text x="18.036" y="16.867" class="l">find</text><text x="23.046" y="16.867" class="l">express.</text><text x="32.064" y="16.867" class="l">Make</text><text x="37.074" y="16.867" class="l">sure</text><text x="42.084" y="16.867" class="l">you</text><text x="46.092" y="16.867" class="l">have</text><text x="51.102" y="16.867" class="l">installed</text><text x="61.122" y="16.867" class="l">it</text></svg></svg></g></svg></svg>