<svg xmlns="http://www.w3.org/2000/svg" xmlns:xlink="http://www.w3.org/1999/xlink" width="660" height="195.39"><rect width="660" height="195.39" rx="0" ry="0" class="a"/><svg height="195.39" viewBox="0 0 64 19.539" width="640" x="10" xmlns="http://www.w3.org/2000/svg" xmlns:xlink="http://www.w3.org/1999/xlink"><style>.a{fill:#282d35}.d{fill:#71bef2}.e{fill:#282d35;font-weight:700}.f{fill:#a8cc8c}.g{fill:#dbab79}.h{fill:#e88388}</style><g font-size="1.67" font-family="Monaco,Consolas,Menlo,'Bitstream Vera Sans Mono','Powerline Symbols',monospace"><defs><symbol id="a"><path fill="transparent" d="M0 0h64v10H0z"/></symbol></defs><path class="a" d="M0 0h64v19.539H0z"/><svg width="64"><svg><use xlink:href="#a"/><path class="d" d="M0 2.171h6v2.171H0z"/><text y="3.841" x="1" class="e">TEST</text><text x="7.014" y="3.841" class="d">Running</text><text x="15.03" y="3.841" class="d">unit</text><text x="20.04" y="3.841" class="d">tests...</text><path class="f" d="M0 6.513h7v2.171H0z"/><text x="1" y="8.183" class="e">READY</text><text x="8.016" y="8.183" class="f">Server</text><text x="15.03" y="8.183" class="f">running</text><text x="23.046" y="8.183" class="f">on</text><text x="26.052" y="8.183" class="d">http://localhost:3000</text><path class="g" d="M0 10.855h6v2.171H0z"/><text x="1" y="12.525" class="e">WARN</text><text x="7.014" y="12.525" class="g">This</text><text x="12.024" y="12.525" class="g">feature</text><text x="20.04" y="12.525" class="g">will</text><text x="25.05" y="12.525" class="g">be</text><text x="28.056" y="12.525" class="g">deprecated</text><text x="39.078" y="12.525" class="g">soon.</text><path class="h" d="M0 15.197h7v2.171H0z"/><text x="1" y="16.867" class="e">ERROR</text><text x="8.016" y="16.867" class="h">Could</text><text x="14.028" y="16.867" class="h">not</text><text x="18.036" y="16.867" class="h">find</text><text x="23.046" y="16.867" class="h">express.</text><text x="32.064" y="16.867" class="h">Make</text><text x="37.074" y="16.867" class="h">sure</text><text x="42.084" y="16.867" class="h">you</text><text x="46.092" y="16.867" class="h">have</text><text x="51.102" y="16.867" class="h">installed</text><text x="61.122" y="16.867" class="h">it</text></svg></svg></g></svg></svg>